<svg width="45" height="45" viewBox="0 0 45 45" fill="none" xmlns="http://www.w3.org/2000/svg">
<path opacity="0.12" d="M44.5 22.5C44.5 34.6503 34.6503 44.5 22.5 44.5C10.3497 44.5 0.5 34.6503 0.5 22.5C0.5 10.3497 10.3497 0.5 22.5 0.5C34.6503 0.5 44.5 10.3497 44.5 22.5Z" stroke="white"/>
<path d="M20.699 29.393L20.6786 23.0961H18V20.3974H20.6786V18.5983C20.6786 16.1702 22.171 15 24.3209 15C25.3507 15 26.2358 15.0772 26.4937 15.1118V17.6493L25.0026 17.65C23.8334 17.65 23.607 18.2097 23.607 19.0312V20.3974H26.9286L26.0357 23.0961H23.607V29.393H20.699Z" fill="white"/>
</svg>
