<svg width="160" height="62" viewBox="0 0 160 62" fill="none" xmlns="http://www.w3.org/2000/svg">
<path d="M85.3201 19.8801C85.0001 19.8801 84.6701 19.7801 84.3901 19.5901L60.9801 3.66007L37.5801 19.5901C37.0201 19.9801 36.2801 19.9801 35.7201 19.5901L12.3201 3.66007L-11.0799 19.5901C-11.6399 19.9801 -12.3799 19.9801 -12.9399 19.5901L-37.2799 3.03007C-38.0399 2.52007 -38.2299 1.49007 -37.7199 0.730068C-37.2099 -0.0199317 -36.1699 -0.219932 -35.4199 0.300068L-12.0199 16.2301L11.3801 0.300068C11.9401 -0.0899316 12.6801 -0.0899316 13.2401 0.300068L36.6401 16.2301L60.0401 0.300068C60.6001 -0.0899316 61.3401 -0.0899316 61.9001 0.300068L85.3001 16.2301L108.7 0.300068C109.26 -0.0899316 110 -0.0899316 110.56 0.300068L133.97 16.2301L157.38 0.300068C158.14 -0.209932 159.17 -0.0199317 159.68 0.740068C160.19 1.50007 160 2.53007 159.24 3.05007L134.89 19.6101C134.33 19.9901 133.59 19.9901 133.03 19.6101L109.65 3.66007L86.2501 19.5901C85.9701 19.7801 85.6401 19.8801 85.3201 19.8801Z" fill="#9C9FAB"/>
<path d="M85.3201 40.3401C85.0001 40.3401 84.6701 40.2401 84.3901 40.0501L60.9901 24.1201L37.59 40.0501C37.0301 40.4301 36.2901 40.4301 35.7301 40.0501L12.3301 24.1201L-11.0699 40.0501C-11.6299 40.4301 -12.3699 40.4301 -12.9299 40.0501L-37.2799 23.4901C-38.0399 22.9701 -38.2299 21.9401 -37.7199 21.1901C-37.2099 20.4301 -36.1699 20.2301 -35.4199 20.7501L-12.0199 36.6801L11.3801 20.7501C11.9401 20.3701 12.6801 20.3701 13.2401 20.7501L36.6401 36.6801L60.0401 20.7501C60.6001 20.3701 61.3401 20.3701 61.9001 20.7501L85.3001 36.6801L108.7 20.7501C109.26 20.3701 110 20.3701 110.56 20.7501L133.97 36.6801L157.38 20.7501C158.14 20.2401 159.17 20.4301 159.68 21.1901C160.19 21.9501 160 22.9801 159.24 23.4901L134.89 40.0601C134.33 40.4401 133.59 40.4401 133.03 40.0601L109.62 24.1301L86.2201 40.0601C85.9701 40.2501 85.6401 40.3401 85.3201 40.3401Z" fill="#9C9FAB"/>
<path d="M85.3201 61.3301C85.0001 61.3301 84.6701 61.2301 84.3901 61.0401L60.9901 45.1101L37.59 61.0401C37.0301 61.4201 36.2901 61.4201 35.7301 61.0401L12.3301 45.1101L-11.0699 61.0401C-11.6299 61.4201 -12.3699 61.4201 -12.9299 61.0401L-37.2799 44.4701C-38.0399 43.9601 -38.2299 42.9301 -37.7199 42.1701C-37.2099 41.4101 -36.1699 41.2101 -35.4199 41.7301L-12.0199 57.6601L11.3801 41.7301C11.9401 41.3501 12.6801 41.3501 13.2401 41.7301L36.6401 57.6601L60.0401 41.7301C60.6001 41.3501 61.3401 41.3501 61.9001 41.7301L85.3001 57.6601L108.7 41.7301C109.26 41.3501 110 41.3501 110.56 41.7301L133.97 57.6601L157.38 41.7301C158.14 41.2101 159.17 41.4101 159.68 42.1701C160.19 42.9201 160 43.9501 159.24 44.4701L134.89 61.0301C134.33 61.4101 133.59 61.4101 133.03 61.0301L109.62 45.1001L86.2201 61.0301C85.9701 61.2301 85.6401 61.3301 85.3201 61.3301Z" fill="#9C9FAB"/>
</svg>
