<svg width="129" height="29" viewBox="0 0 129 29" fill="none" xmlns="http://www.w3.org/2000/svg">
<path d="M128.797 12.9697V10.7045H125.984V7.18309L125.89 7.21225L123.248 8.02063L123.195 8.03645V10.7047H119.025V9.21824C119.025 8.52611 119.18 7.99645 119.485 7.64322C119.788 7.29423 120.221 7.11681 120.774 7.11681C121.171 7.11681 121.582 7.21038 121.996 7.39491L122.1 7.44125V5.05574L122.051 5.0378C121.665 4.899 121.14 4.8291 120.489 4.8291C119.668 4.8291 118.923 5.00765 118.273 5.3615C117.622 5.71585 117.111 6.22171 116.752 6.86487C116.395 7.50729 116.214 8.24926 116.214 9.07035V10.7045H114.255V12.9697H116.214V22.5124H119.025V12.9697H123.195V19.0339C123.195 21.5314 124.373 22.7971 126.697 22.7971C127.079 22.7971 127.48 22.7523 127.891 22.6648C128.308 22.5748 128.593 22.485 128.76 22.389L128.797 22.3671V20.081L128.683 20.1566C128.53 20.2583 128.34 20.3414 128.117 20.4032C127.894 20.4661 127.707 20.4977 127.562 20.4977C127.018 20.4977 126.615 20.351 126.365 20.0616C126.113 19.7695 125.984 19.2588 125.984 18.5444V12.9697H128.797ZM107.976 20.498C106.955 20.498 106.151 20.1596 105.584 19.493C105.013 18.8231 104.724 17.8679 104.724 16.6544C104.724 15.4023 105.013 14.4224 105.584 13.7406C106.151 13.0633 106.948 12.7195 107.953 12.7195C108.928 12.7195 109.704 13.0478 110.26 13.6958C110.819 14.3472 111.102 15.3193 111.102 16.586C111.102 17.8682 110.836 18.8531 110.31 19.512C109.788 20.1659 109.002 20.498 107.976 20.498ZM108.101 10.4201C106.154 10.4201 104.607 10.9906 103.505 12.1158C102.403 13.2412 101.844 14.7985 101.844 16.745C101.844 18.5937 102.389 20.0808 103.465 21.1641C104.541 22.2479 106.005 22.7968 107.816 22.7968C109.704 22.7968 111.219 22.2183 112.321 21.0775C113.423 19.938 113.982 18.3954 113.982 16.4944C113.982 14.6167 113.458 13.1186 112.424 12.0425C111.39 10.9658 109.935 10.4201 108.101 10.4201ZM97.3107 10.4201C95.9862 10.4201 94.8907 10.7589 94.0537 11.4268C93.2117 12.0988 92.7846 12.98 92.7846 14.0465C92.7846 14.6008 92.8768 15.0932 93.0582 15.5108C93.2408 15.9298 93.5232 16.2988 93.8985 16.6084C94.2709 16.9155 94.8458 17.2372 95.6076 17.5645C96.248 17.8281 96.7256 18.051 97.029 18.2266C97.3255 18.3988 97.5359 18.5719 97.6548 18.7405C97.7703 18.9054 97.8289 19.1312 97.8289 19.4098C97.8289 20.2031 97.2348 20.5891 96.0124 20.5891C95.559 20.5891 95.0418 20.4944 94.4753 20.3078C93.9127 20.124 93.3818 19.8548 92.9011 19.5096L92.7844 19.4259V22.133L92.8272 22.1529C93.2251 22.3366 93.7267 22.4914 94.3179 22.6133C94.908 22.7353 95.4441 22.7973 95.9098 22.7973C97.347 22.7973 98.5044 22.4569 99.3489 21.785C100.199 21.1084 100.63 20.2064 100.63 19.1031C100.63 18.3071 100.398 17.6246 99.9406 17.0741C99.4867 16.5282 98.6989 16.0269 97.6001 15.5838C96.7247 15.2325 96.1639 14.9408 95.9325 14.7169C95.7095 14.5006 95.5962 14.1947 95.5962 13.8074C95.5962 13.464 95.736 13.1889 96.023 12.9661C96.3122 12.7422 96.7147 12.6283 97.2196 12.6283C97.6881 12.6283 98.1674 12.7023 98.6441 12.8473C99.1204 12.9924 99.5388 13.1866 99.888 13.4242L100.003 13.5027V10.9348L99.9588 10.9159C99.6366 10.7777 99.2117 10.6594 98.6957 10.5635C98.182 10.4682 97.716 10.4201 97.3107 10.4201ZM85.4546 20.498C84.4343 20.498 83.6294 20.1596 83.0625 19.493C82.4918 18.8231 82.2032 17.8682 82.2032 16.6544C82.2032 15.4023 82.4922 14.4224 83.0631 13.7406C83.63 13.0633 84.4268 12.7195 85.432 12.7195C86.4066 12.7195 87.1827 13.0478 87.7388 13.6958C88.2976 14.3472 88.581 15.3193 88.581 16.586C88.581 17.8682 88.3143 18.8531 87.7885 19.512C87.2663 20.1659 86.4815 20.498 85.4546 20.498ZM85.5799 10.4201C83.6324 10.4201 82.0858 10.9906 80.9837 12.1158C79.8818 13.2412 79.3227 14.7985 79.3227 16.745C79.3227 18.5945 79.8685 20.0808 80.9442 21.1641C82.02 22.2479 83.4838 22.7968 85.2951 22.7968C87.1822 22.7968 88.6983 22.2183 89.8004 21.0775C90.9022 19.938 91.4608 18.3954 91.4608 16.4944C91.4608 14.6167 90.9368 13.1186 89.9027 12.0425C88.8682 10.9658 87.4137 10.4201 85.5799 10.4201ZM75.0546 12.7494V10.7045H72.2771V22.5121H75.0546V16.4721C75.0546 15.445 75.2875 14.6013 75.747 13.964C76.2006 13.3343 76.8052 13.0152 77.5433 13.0152C77.7934 13.0152 78.0743 13.0564 78.3784 13.138C78.6794 13.2191 78.8975 13.3072 79.0261 13.3999L79.1428 13.4845V10.6844L79.0978 10.665C78.8392 10.5552 78.4732 10.4997 78.0102 10.4997C77.3123 10.4997 76.6877 10.724 76.1527 11.1656C75.6831 11.5537 75.3437 12.0858 75.0841 12.7494H75.0546ZM67.3032 10.4201C66.0289 10.4201 64.8924 10.6933 63.9256 11.232C62.9569 11.7718 62.2077 12.5426 61.698 13.5227C61.1905 14.5004 60.9329 15.6424 60.9329 16.916C60.9329 18.0317 61.1827 19.0555 61.6764 19.9578C62.1705 20.8616 62.8697 21.5687 63.7548 22.0591C64.6387 22.5489 65.6602 22.7972 66.7913 22.7972C68.1113 22.7972 69.2382 22.5333 70.1418 22.0129L70.1783 21.9919V19.4473L70.0616 19.5325C69.6523 19.8307 69.1949 20.0687 68.7027 20.2401C68.2118 20.4114 67.7643 20.498 67.3718 20.498C66.282 20.498 65.4071 20.157 64.772 19.4847C64.1356 18.8115 63.8129 17.8662 63.8129 16.6767C63.8129 15.4797 64.1494 14.5101 64.8126 13.7946C65.4738 13.0813 66.3504 12.7195 67.4177 12.7195C68.3306 12.7195 69.2202 13.0286 70.0618 13.6392L70.1783 13.7238V11.0426L70.1407 11.0214C69.824 10.8441 69.392 10.6977 68.8557 10.5867C68.3217 10.4759 67.7994 10.4201 67.3032 10.4201ZM59.0199 10.7047H56.2425V22.5121H59.0199V10.7047ZM57.6596 5.67461C57.2025 5.67461 56.8038 5.83023 56.4762 6.1386C56.1473 6.44785 55.9804 6.83721 55.9804 7.29672C55.9804 7.74901 56.1453 8.13127 56.4711 8.43229C56.7948 8.73244 57.1948 8.88457 57.6597 8.88457C58.1246 8.88457 58.5261 8.73244 58.8536 8.43279C59.1833 8.13127 59.3505 7.74913 59.3505 7.29672C59.3505 6.85329 59.1878 6.46791 58.8672 6.15106C58.5469 5.83484 58.1404 5.67461 57.6596 5.67461ZM50.7296 9.8335V22.5121H53.5642V6.03606H49.641L44.6545 18.274L39.8153 6.03606H35.7325V22.512H38.3962V9.83225H38.4877L43.5977 22.5121H45.6079L50.6382 9.8335H50.7296Z" fill="#1F2333"/>
<path d="M13.0661 13.5966H0V0.530518H13.0661V13.5966Z" fill="#1F2333"/>
<path d="M27.4904 13.5966H14.4246V0.530518H27.4904V13.5966Z" fill="#1F2333"/>
<path d="M13.0657 28.0281H0V14.9622H13.0657V28.0281Z" fill="#1F2333"/>
<path d="M27.4904 28.0281H14.4246V14.9622H27.4904V28.0281Z" fill="#1F2333"/>
</svg>
