<svg width="113" height="37" viewBox="0 0 113 37" fill="none" xmlns="http://www.w3.org/2000/svg">
<path d="M14.7001 0H15.6961C19.1538 0.075168 22.5552 1.46578 24.9981 3.92753C24.0961 4.84833 23.1753 5.73156 22.2921 6.65237C20.9203 5.41209 19.2666 4.4537 17.4626 4.11545C14.7941 3.55169 11.9189 4.05907 9.6827 5.58122C7.23974 7.17854 5.58605 9.88459 5.22901 12.7786C4.83438 15.6349 5.64243 18.6417 7.50283 20.8591C9.28807 23.0202 12.0129 24.3732 14.8317 24.4672C17.4626 24.6175 20.2062 23.8095 22.123 21.9678C23.6263 20.6712 24.3216 18.698 24.5471 16.7812C21.4277 16.7812 18.3082 16.8 15.1887 16.7812V12.9101H28.3243C29.0008 17.0631 28.0236 21.7423 24.8666 24.7115C22.7619 26.8162 19.8491 28.0564 16.88 28.3007C14.0048 28.5826 11.0357 28.0377 8.48001 26.647C5.41693 25.0121 2.97397 22.2497 1.77129 18.9987C0.643771 16.0108 0.624979 12.6282 1.67733 9.6215C2.63572 6.87787 4.47733 4.4537 6.84511 2.76242C9.11894 1.08994 11.8814 0.169128 14.7001 0Z" fill="#1F2333"/>
<path d="M90.0558 0.977051H94.0773V27.8119C92.7431 27.8119 91.3901 27.8307 90.0558 27.7931C90.0746 18.867 90.0558 9.92201 90.0558 0.977051Z" fill="#1F2333"/>
<path d="M37.2693 10.2792C39.7498 9.80945 42.4371 10.3356 44.4854 11.8202C46.3458 13.1356 47.6424 15.2027 48.0371 17.4578C48.5445 20.0699 47.9055 22.9262 46.2142 24.9934C44.3914 27.3048 41.4035 28.545 38.4907 28.3571C35.8223 28.2068 33.229 26.8726 31.6505 24.6927C29.8652 22.2873 29.433 18.9799 30.4102 16.1611C31.3874 13.1356 34.1498 10.8242 37.2693 10.2792ZM37.833 13.8497C36.8183 14.1128 35.8787 14.6954 35.2022 15.5222C33.3793 17.7021 33.4921 21.2538 35.5028 23.2833C36.6491 24.4484 38.378 24.9934 39.9753 24.6739C41.4599 24.4108 42.7565 23.4148 43.4706 22.0994C44.7109 19.8631 44.3538 16.7813 42.4559 15.0336C41.2344 13.9061 39.4491 13.4363 37.833 13.8497Z" fill="#1F2333"/>
<path d="M57.1887 10.2794C60.0262 9.73444 63.1269 10.5237 65.2504 12.5156C68.7081 15.6163 69.084 21.423 66.1336 24.9935C64.3484 27.2485 61.4544 28.4888 58.5981 28.3572C55.8732 28.2821 53.186 26.9291 51.5699 24.6928C49.7471 22.2311 49.3524 18.8485 50.386 15.9734C51.4195 13.0418 54.1256 10.8056 57.1887 10.2794ZM57.7524 13.8499C56.7377 14.113 55.7981 14.6955 55.1216 15.5036C53.3175 17.6458 53.3927 21.1411 55.3283 23.1895C56.4746 24.4109 58.2598 25.0123 59.9135 24.674C61.3793 24.3921 62.6947 23.415 63.4088 22.0995C64.6303 19.8445 64.2732 16.7626 62.3564 15.015C61.135 13.8875 59.3497 13.4365 57.7524 13.8499Z" fill="#1F2333"/>
<path d="M74.0826 11.3689C76.2437 10.0159 79.1188 9.64009 81.449 10.8052C82.1819 11.1247 82.7833 11.6696 83.3658 12.2146C83.3846 11.7072 83.3658 11.181 83.3846 10.6549C84.6437 10.6736 85.9027 10.6549 87.1806 10.6736V27.2481C87.1618 29.7474 86.5229 32.3971 84.7188 34.2199C82.7457 36.2307 79.7202 36.8508 76.9953 36.4374C74.0826 36.0052 71.5457 33.8817 70.4182 31.1944C71.5457 30.6495 72.7296 30.2172 73.8947 29.7099C74.5524 31.2508 75.8866 32.5662 77.5591 32.8669C79.2316 33.1676 81.1672 32.7542 82.2571 31.3636C83.4222 29.9354 83.4222 27.981 83.3658 26.2334C82.5014 27.079 81.5054 27.8307 80.3027 28.1126C77.6906 28.8454 74.8155 27.9434 72.8047 26.177C70.7752 24.4105 69.5725 21.6857 69.6853 18.9797C69.7416 15.9166 71.4705 12.9663 74.0826 11.3689ZM77.9725 13.7743C76.8262 13.9622 75.7551 14.6012 75.0222 15.4844C73.2557 17.5891 73.2557 20.9528 75.041 23.0199C76.0557 24.2414 77.6906 24.9179 79.2692 24.7488C80.7537 24.5985 82.1255 23.6589 82.8584 22.3622C84.0987 20.1636 83.892 17.1757 82.2195 15.2589C81.1859 14.075 79.5323 13.4924 77.9725 13.7743Z" fill="#1F2333"/>
<path d="M98.9068 12.3274C101.162 10.2227 104.638 9.50856 107.532 10.6173C110.276 11.6508 112.024 14.2629 112.907 16.9502C108.829 18.6414 104.77 20.3139 100.692 22.0052C101.256 23.0763 102.12 24.0535 103.285 24.4482C104.92 25.0307 106.875 24.824 108.246 23.7341C108.791 23.3206 109.224 22.7757 109.637 22.2495C110.671 22.9448 111.704 23.6213 112.738 24.3166C111.272 26.5153 108.81 28.0562 106.161 28.3005C103.229 28.6576 100.11 27.53 98.2115 25.2374C95.0921 21.6294 95.3927 15.5784 98.9068 12.3274ZM100.918 15.8039C100.279 16.7247 100.016 17.8522 100.034 18.9609C102.759 17.8334 105.484 16.7059 108.209 15.5596C107.758 14.5072 106.668 13.8683 105.559 13.6992C103.774 13.3797 101.914 14.3381 100.918 15.8039Z" fill="#1F2333"/>
</svg>
