<svg width="113" height="29" viewBox="0 0 113 29" fill="none" xmlns="http://www.w3.org/2000/svg">
<path fill-rule="evenodd" clip-rule="evenodd" d="M35.847 22.4241L37.2448 19.1761C38.7545 20.305 40.7661 20.8919 42.7507 20.8919C44.2157 20.8919 45.143 20.3274 45.143 19.4718C45.1206 17.0794 36.3667 18.9521 36.2995 12.9534C36.2771 9.90697 38.983 7.55946 42.8179 7.55946C45.0982 7.55946 47.3741 8.12394 49.0003 9.40969L47.6921 12.7249C46.2048 11.7751 44.3545 11.0987 42.5939 11.0987C41.3977 11.0987 40.6093 11.6631 40.6093 12.3844C40.6317 14.7319 49.4528 13.4462 49.5424 19.1761C49.5424 22.2897 46.9037 24.4804 43.1136 24.4804C40.336 24.4759 37.7869 23.8218 35.847 22.4241ZM89.5219 18.0023C88.823 19.2209 87.5149 20.0542 86.0006 20.0542C83.7651 20.0542 81.9641 18.2487 81.9641 16.0177C81.9641 13.7866 83.7696 11.9812 86.0006 11.9812C87.5104 11.9812 88.823 12.8145 89.5219 14.033L93.3792 11.8916C91.9366 9.32009 89.159 7.55946 86.0006 7.55946C81.328 7.55946 77.5379 11.3495 77.5379 16.0222C77.5379 20.6948 81.328 24.4849 86.0006 24.4849C89.1814 24.4849 91.9366 22.7466 93.3792 20.1527L89.5219 18.0023ZM51.4822 0.539307H56.3117V24.1623H51.4822V0.539307ZM95.2742 0.539307V24.1623H100.104V17.075L105.834 24.1623H112.016L104.727 15.7444L111.474 7.89098H105.56L100.099 14.4094V0.539307H95.2742Z" fill="black"/>
<path d="M70.6612 18.0471C69.9623 19.1984 68.5197 20.0541 66.8935 20.0541C64.658 20.0541 62.857 18.2487 62.857 16.0176C62.857 13.7866 64.6625 11.9812 66.8935 11.9812C68.5197 11.9812 69.9623 12.8816 70.6612 14.0554V18.0471ZM70.6612 7.89541V9.81285C69.8727 8.48229 67.9104 7.55493 65.8541 7.55493C61.6116 7.55493 58.274 11.3002 58.274 15.9952C58.274 20.6903 61.6116 24.4803 65.8541 24.4803C67.906 24.4803 69.8682 23.5575 70.6612 22.2224V24.1399H75.4906V7.89541H70.6612Z" fill="black"/>
<path fill-rule="evenodd" clip-rule="evenodd" d="M5.99665 18.0246C5.99665 19.6733 4.66609 21.0038 3.01745 21.0038C1.36881 21.0038 0.0382462 19.6688 0.0382462 18.0246C0.0382462 16.3805 1.36881 15.0454 3.01745 15.0454H5.99665V18.0246ZM7.48401 18.0246C7.48401 16.376 8.81457 15.0454 10.4632 15.0454C12.1118 15.0454 13.4424 16.376 13.4424 18.0246V25.4704C13.4424 27.119 12.1118 28.4496 10.4632 28.4496C8.81457 28.4496 7.48401 27.119 7.48401 25.4704V18.0246Z" fill="#E01E5A"/>
<path fill-rule="evenodd" clip-rule="evenodd" d="M10.4634 6.06755C8.81471 6.06755 7.48415 4.73698 7.48415 3.08834C7.48415 1.43969 8.81471 0.109131 10.4634 0.109131C12.112 0.109131 13.4426 1.43969 13.4426 3.08834V6.06755H10.4634ZM10.4634 7.57731C12.112 7.57731 13.4426 8.90787 13.4426 10.5565C13.4426 12.2052 12.112 13.5357 10.4634 13.5357H2.99519C1.34655 13.5357 0.0159912 12.2007 0.0159912 10.5565C0.0159912 8.91235 1.34655 7.57731 2.99519 7.57731H10.4634Z" fill="#36C5F0"/>
<path fill-rule="evenodd" clip-rule="evenodd" d="M22.3982 10.5565C22.3982 8.90788 23.7288 7.57731 25.3774 7.57731C27.026 7.57731 28.3566 8.90788 28.3566 10.5565C28.3566 12.2052 27.026 13.5357 25.3774 13.5357H22.3982V10.5565ZM20.9108 10.5565C20.9108 12.2052 19.5803 13.5357 17.9316 13.5357C16.283 13.5357 14.9525 12.2052 14.9525 10.5565V3.08834C14.9525 1.43969 16.283 0.109131 17.9316 0.109131C19.5803 0.109131 20.9108 1.43969 20.9108 3.08834V10.5565Z" fill="#2EB67D"/>
<path fill-rule="evenodd" clip-rule="evenodd" d="M17.9316 22.4912C19.5803 22.4912 20.9108 23.8218 20.9108 25.4704C20.9108 27.119 19.5803 28.4496 17.9316 28.4496C16.283 28.4496 14.9525 27.119 14.9525 25.4704V22.4912H17.9316ZM17.9316 21.0038C16.283 21.0038 14.9525 19.6733 14.9525 18.0246C14.9525 16.376 16.283 15.0454 17.9316 15.0454H25.3998C27.0484 15.0454 28.379 16.376 28.379 18.0246C28.379 19.6733 27.0484 21.0038 25.3998 21.0038H17.9316Z" fill="#ECB22E"/>
</svg>
