<svg width="108" height="33" viewBox="0 0 108 33" fill="none" xmlns="http://www.w3.org/2000/svg">
<path d="M23.0593 7.80196V18.2301C23.0593 18.3991 22.9921 18.5612 22.8726 18.6807C22.7531 18.8003 22.5911 18.8674 22.4221 18.8674H19.1311C18.9622 18.8673 18.8002 18.8002 18.6807 18.6807C18.5612 18.5611 18.494 18.3991 18.494 18.2301V1.26823C18.494 1.09919 18.5611 0.937081 18.6806 0.817554C18.8001 0.698027 18.9622 0.630877 19.1311 0.630877H22.1765C22.3455 0.630877 22.5076 0.698027 22.6271 0.817554C22.7466 0.937081 22.8137 1.09919 22.8137 1.26823V3.6569C22.8137 3.6569 23.9024 0.249533 27.1332 0.249533C27.1332 0.249533 30.3289 -0.13687 31.6282 3.41101C31.6282 3.41101 32.7169 0.249533 36.0179 0.249533C36.0179 0.249533 40.9271 -0.0424477 40.9271 5.03868L40.9645 7.83708V18.2652C40.9645 18.4342 40.8973 18.5963 40.7778 18.7159C40.6584 18.8354 40.4963 18.9025 40.3273 18.9025H37.0361C36.8671 18.9025 36.7051 18.8353 36.5856 18.7158C36.4661 18.5963 36.399 18.4342 36.3989 18.2652L36.3688 6.88864C36.4624 4.31253 34.3789 4.49997 34.3789 4.49997C31.7569 4.5469 32.0092 7.83708 32.0092 7.83708V18.2652C32.0092 18.4342 31.9421 18.5963 31.8226 18.7159C31.7031 18.8354 31.541 18.9025 31.372 18.9025H28.0811C27.9121 18.9025 27.7501 18.8353 27.6306 18.7158C27.5111 18.5963 27.444 18.4342 27.4439 18.2652V7.14605C27.4439 7.14605 27.6364 4.47636 25.295 4.47636C25.2953 4.47636 22.9775 4.17202 23.0593 7.80196ZM107.891 7.77076V18.1986C107.891 18.3676 107.824 18.5297 107.704 18.6492C107.585 18.7687 107.423 18.8359 107.254 18.8359L103.831 18.9023C103.662 18.9022 103.5 18.835 103.38 18.7155C103.261 18.596 103.194 18.4339 103.194 18.2649V7.14605C103.194 7.14605 103.386 4.47636 101.045 4.47636C101.045 4.47636 98.8091 4.3662 98.8091 8.552V18.2298C98.809 18.3988 98.7419 18.5609 98.6224 18.6804C98.5029 18.7999 98.3409 18.8671 98.1719 18.8671H94.8807C94.7117 18.8671 94.5497 18.7999 94.4302 18.6804C94.3107 18.5609 94.2436 18.3988 94.2435 18.2298V1.26823C94.2436 1.09922 94.3107 0.937147 94.4302 0.817636C94.5497 0.698125 94.7117 0.630952 94.8807 0.630877H97.9261C98.0951 0.630877 98.2571 0.698027 98.3766 0.817554C98.4961 0.937081 98.5633 1.09919 98.5633 1.26823V3.6569C98.5633 3.6569 99.6519 0.249533 102.883 0.249533C102.883 0.249533 106.344 -0.275694 107.509 3.34497C107.51 3.34469 107.891 4.09164 107.891 7.77076ZM84.1288 0.179278C79.9203 0.179278 76.5083 3.72716 76.5083 9.69884C76.5083 14.9565 79.1421 19.2184 84.1288 19.2184C88.8346 19.2184 91.7493 14.9565 91.7493 9.69884C91.7493 3.83254 88.3376 0.179278 84.1288 0.179278ZM86.7851 9.90961C86.7851 12.1578 86.5042 13.3521 86.5042 13.3521C86.1044 15.7287 84.3797 15.7321 84.1254 15.7194C83.851 15.7304 82.1116 15.7057 81.7518 13.3521C81.7518 13.3521 81.4708 12.1578 81.4708 9.90961V9.53501C81.4708 7.28685 81.7518 6.09251 81.7518 6.09251C82.1116 3.73896 83.8512 3.71423 84.1254 3.72491C84.3797 3.71227 86.1044 3.71536 86.5042 6.09251C86.5042 6.09251 86.7851 7.28685 86.7851 9.53501V9.90961ZM74.5982 3.6333V1.19966C74.5981 1.03065 74.5309 0.868578 74.4115 0.749067C74.292 0.629556 74.13 0.562383 73.961 0.562308H63.0829C62.914 0.562308 62.7519 0.629458 62.6324 0.748985C62.5129 0.868512 62.4458 1.03063 62.4458 1.19966V3.61447C62.4459 3.78348 62.513 3.94556 62.6325 4.06507C62.752 4.18458 62.914 4.25175 63.0829 4.25183H68.7571L62.0409 13.9976C62.0409 13.9976 61.7763 14.3927 61.785 14.8292V17.7936C61.785 17.7936 61.7412 18.8101 62.8936 18.2202C62.8936 18.2202 64.9405 16.9832 68.3728 16.9832C68.3728 16.9832 71.7623 16.941 74.0222 18.3267C74.0222 18.3267 74.9603 18.7533 74.9603 17.8153V15.2349C74.9603 15.2349 75.0454 14.5521 74.1501 14.1258C74.1501 14.1258 71.5491 12.6971 68.1382 12.9314L74.5982 3.6333ZM15.954 15.8341L14.9238 14.2654C14.5959 13.6798 14.6195 13.0239 14.6195 13.0239V5.78788C14.76 -0.464821 7.83002 0.0738949 7.83002 0.0738949C1.66954 0.0738949 0.759577 4.86951 0.759577 4.86951C0.502797 5.83369 1.24954 5.85701 1.24954 5.85701L4.25982 6.16248C4.25982 6.16248 4.7731 6.27995 4.95992 5.66873C4.95992 5.66873 5.35633 3.57653 7.57324 3.57653C9.9854 3.57653 9.96039 5.64737 9.96039 5.64737V7.38099C5.14507 7.54201 2.91355 8.87911 2.91355 8.87911C-0.0596462 10.5652 0.12746 13.9141 0.12746 13.9141C0.12746 19.3704 5.32487 19.1361 5.32487 19.1361C8.64924 19.1361 10.6158 16.7007 10.6158 16.7007C11.201 17.7315 12.2782 18.7145 12.2782 18.7145C12.817 19.2991 13.3786 18.8084 13.3786 18.8084L15.8135 16.7244C16.3518 16.3259 15.954 15.8341 15.954 15.8341ZM6.9473 15.7666C5.38358 15.7666 4.80232 14.2123 5.06191 12.6847C5.32178 11.1571 6.67142 9.95654 9.96067 9.99167V10.9204C10.0773 14.9778 8.2489 15.7666 6.9473 15.7666ZM59.6869 15.8341L58.657 14.2654C58.3291 13.6798 58.3525 13.0239 58.3525 13.0239V5.78788C58.4929 -0.464821 51.563 0.0738949 51.563 0.0738949C45.4025 0.0738949 44.4925 4.86951 44.4925 4.86951C44.2357 5.83369 44.9825 5.85701 44.9825 5.85701L47.9928 6.16248C47.9928 6.16248 48.506 6.27995 48.6929 5.66873C48.6929 5.66873 49.0893 3.57653 51.3062 3.57653C53.7183 3.57653 53.6933 5.64737 53.6933 5.64737V7.38099C48.8783 7.54201 46.6465 8.87911 46.6465 8.87911C43.6733 10.5652 43.8604 13.9141 43.8604 13.9141C43.8604 19.3704 49.0578 19.1361 49.0578 19.1361C52.3822 19.1361 54.3488 16.7007 54.3488 16.7007C54.9343 17.7315 56.0108 18.7145 56.0108 18.7145C56.5497 19.2991 57.1115 18.8084 57.1115 18.8084L59.5462 16.7244C60.0847 16.3259 59.6869 15.8341 59.6869 15.8341ZM50.6803 15.7666C49.1165 15.7666 48.5353 14.2123 48.7949 12.6847C49.0547 11.1571 50.4044 9.95654 53.6933 9.99167V10.9204C53.8102 14.9778 51.9821 15.7666 50.6803 15.7666Z" fill="#1F2333"/>
<path d="M67.9734 29.5307C67.9734 29.5307 67.6981 30.0098 68.0363 30.1169C68.0363 30.1169 68.4184 30.2661 68.8949 29.8238C68.8949 29.8238 72.3698 26.7874 72.4535 21.2591C72.4535 21.2591 72.4791 20.5686 72.2021 20.3798C72.2021 20.3798 71.1134 19.4164 67.1988 19.7096C67.1988 19.7096 63.7865 19.94 61.9236 21.5944C61.9236 21.5944 61.7562 21.7408 61.7562 21.9291C61.7562 21.9291 61.716 22.3357 62.74 22.1595C62.74 22.1595 66.152 21.6775 68.1827 21.9291C68.1827 21.9291 69.2297 22.0547 69.5228 22.411C69.5228 22.411 70.0043 22.8089 69.7528 24.1278C69.7528 24.1283 69.0617 27.4787 67.9734 29.5307Z" fill="#1F2333"/>
<path d="M67.2854 24.2286C67.2854 24.2286 67.7951 24.8889 66.9728 25.4586C66.9728 25.4586 58.1886 32.4869 43.4392 32.4869C43.4392 32.4869 28.2566 33.2361 15.5791 21.7143C15.5791 21.7143 15.1347 21.3239 15.4106 20.9611C15.4106 20.9611 15.6572 20.6273 16.2958 20.9904C16.2958 20.9904 28.2215 28.4236 43.8839 28.4236C43.8839 28.4236 54.7704 28.8452 65.9378 24.0678C65.9378 24.0678 66.8275 23.6067 67.2854 24.2286Z" fill="#1F2333"/>
</svg>
