<svg width="112" height="26" viewBox="0 0 112 26" fill="none" xmlns="http://www.w3.org/2000/svg">
<path fill-rule="evenodd" clip-rule="evenodd" d="M31.8156 1.52255C33.3555 1.93737 34.5659 3.14761 34.975 4.68192C35.7195 7.46627 35.7195 13.2795 35.7195 13.2795C35.7195 13.2795 35.7195 19.0925 34.975 21.8769C34.5602 23.4167 33.35 24.6271 31.8156 25.0362C29.0313 25.7807 17.8597 25.7807 17.8597 25.7807C17.8597 25.7807 6.6938 25.7807 3.90372 25.0362C2.36383 24.6214 1.15344 23.4112 0.744348 21.8769C-0.00012207 19.0925 -0.00012207 13.2793 -0.00012207 13.2793C-0.00012207 13.2793 -0.00012207 7.46627 0.744348 4.68192C1.15917 3.14203 2.36956 1.93164 3.90372 1.52255C6.6938 0.778076 17.8597 0.778076 17.8597 0.778076C17.8597 0.778076 29.0313 0.778076 31.8156 1.52255ZM23.5706 13.2795L14.2913 18.638V7.92102L23.5706 13.2795Z" fill="#1F2333"/>
<path fill-rule="evenodd" clip-rule="evenodd" d="M51.8462 23.5243C51.1415 23.047 50.6358 22.3083 50.3404 21.3026C50.0448 20.2968 49.8914 18.9614 49.8914 17.2907V15.0178C49.8914 13.3302 50.0618 11.9778 50.4028 10.9548C50.7437 9.93205 51.2779 9.18773 51.9995 8.72167C52.7212 8.25575 53.6702 8.01714 54.8464 8.01714C56.0057 8.01714 56.932 8.25575 57.6308 8.73312C58.3297 9.21034 58.8412 9.95481 59.1651 10.9662C59.489 11.9778 59.6482 13.3302 59.6482 15.0121V17.2851C59.6482 18.9557 59.489 20.2968 59.1764 21.3082C58.8639 22.3196 58.3526 23.0641 57.6422 23.53C56.9375 23.9959 55.9772 24.2348 54.7668 24.2348C53.5281 24.2402 52.5507 24.0016 51.8462 23.5243ZM55.8067 21.0696C56 20.5581 56.1023 19.7228 56.1023 18.5694V13.6882C56.1023 12.563 56.0057 11.7448 55.8067 11.222C55.6136 10.7049 55.267 10.4435 54.7726 10.4435C54.2953 10.4435 53.9599 10.7049 53.7611 11.222C53.5679 11.739 53.4657 12.563 53.4657 13.6882V18.5694C53.4657 19.7285 53.5566 20.5639 53.7441 21.0696C53.9316 21.581 54.2726 21.8367 54.767 21.8367C55.267 21.8367 55.6079 21.581 55.8067 21.0696ZM106.096 17.3305V18.1205C106.096 19.1262 106.124 19.8762 106.187 20.3819C106.244 20.8821 106.369 21.2514 106.556 21.4788C106.744 21.706 107.034 21.8253 107.426 21.8253C107.954 21.8253 108.318 21.6208 108.511 21.2116C108.704 20.8025 108.812 20.1206 108.829 19.166L111.869 19.3422C111.886 19.4784 111.892 19.6659 111.892 19.9046C111.892 21.3537 111.494 22.4333 110.704 23.1492C109.914 23.8652 108.795 24.2232 107.346 24.2232C105.607 24.2232 104.391 23.6777 103.692 22.5867C102.993 21.4957 102.647 19.8137 102.647 17.5295V14.7962C102.647 12.4437 103.01 10.7332 103.732 9.64807C104.454 8.56837 105.692 8.02844 107.448 8.02844C108.659 8.02844 109.585 8.25017 110.233 8.69333C110.881 9.13648 111.335 9.82398 111.602 10.7617C111.864 11.6992 112 12.9949 112 14.6428V17.3249H106.096V17.3305ZM106.545 10.7389C106.369 10.9607 106.249 11.3242 106.187 11.8244C106.124 12.3243 106.096 13.0916 106.096 14.1086V15.2338H108.676V14.1086C108.676 13.1027 108.642 12.3414 108.573 11.8244C108.505 11.3072 108.38 10.9379 108.204 10.7276C108.028 10.5173 107.749 10.4094 107.374 10.4094C106.999 10.4037 106.721 10.5173 106.545 10.7389ZM43.2657 17.0351L39.2541 2.55065H42.7543L44.1579 9.11387C44.5159 10.7333 44.7773 12.1085 44.9477 13.2506H45.0499C45.1693 12.4323 45.4307 11.0629 45.8399 9.13648L47.2945 2.54492H50.7948L46.7377 17.0351V23.9846H43.2657V17.0351ZM71.0299 8.32403V23.9789H68.2739L67.967 22.064H67.8931C67.1431 23.513 66.018 24.2347 64.5235 24.2347C63.4837 24.2347 62.7165 23.8937 62.2222 23.2118C61.7278 22.5299 61.4835 21.4674 61.4835 20.0184V8.32403H65.0066V19.8194C65.0066 20.5183 65.0805 21.0185 65.2339 21.3139C65.3874 21.6094 65.643 21.7628 66.001 21.7628C66.3079 21.7628 66.6033 21.6718 66.8817 21.4844C67.1601 21.2969 67.3704 21.0581 67.5068 20.7684V8.32388L71.0299 8.32403ZM89.1113 8.32403V23.9789H86.3553L86.0484 22.064H85.9745C85.2245 23.513 84.0994 24.2347 82.6049 24.2347C81.5651 24.2347 80.7979 23.8937 80.3036 23.2118C79.8092 22.5299 79.5649 21.4674 79.5649 20.0184V8.32403H83.088V19.8194C83.088 20.5183 83.1618 21.0185 83.3153 21.3139C83.4686 21.6094 83.7244 21.7628 84.0824 21.7628C84.3893 21.7628 84.6847 21.6718 84.9631 21.4844C85.2415 21.2969 85.4518 21.0581 85.5882 20.7684V8.32388L89.1113 8.32403Z" fill="#1F2333"/>
<path fill-rule="evenodd" clip-rule="evenodd" d="M80.6103 5.38642H77.11V23.9791H73.6607V5.38642H70.1604V2.55098H80.6046V5.38642H80.6103ZM100.777 10.83C100.561 9.84135 100.22 9.12536 99.7429 8.68221C99.2656 8.2389 98.6122 8.01732 97.7767 8.01732C97.1291 8.01732 96.5267 8.19911 95.9641 8.56855C95.4016 8.93212 94.9697 9.41522 94.6628 10.0118H94.6345V1.76099H91.2364V23.9848H94.1457L94.5037 22.5017H94.5777C94.8504 23.0302 95.2595 23.445 95.805 23.7518C96.3505 24.0587 96.9529 24.2121 97.6177 24.2121C98.811 24.2121 99.686 23.6609 100.249 22.5641C100.811 21.4676 101.09 19.7515 101.09 17.416V14.9384C101.095 13.1882 100.987 11.8188 100.777 10.8302V10.83ZM97.5438 17.217C97.5438 18.3593 97.4983 19.2513 97.4018 19.8992C97.3108 20.547 97.1518 21.0072 96.9302 21.28C96.7085 21.5527 96.413 21.6891 96.038 21.6891C95.7481 21.6891 95.4812 21.621 95.2311 21.4846C94.9868 21.3482 94.7822 21.1436 94.6288 20.8708V11.978C94.7482 11.5517 94.9527 11.2052 95.2426 10.9325C95.5323 10.6597 95.8448 10.5233 96.1857 10.5233C96.5437 10.5233 96.8221 10.6653 97.0153 10.9437C97.2086 11.2222 97.345 11.6994 97.4244 12.3586C97.4984 13.0235 97.5381 13.9668 97.5381 15.194V17.217H97.5438Z" fill="#1F2333"/>
</svg>
